<?xml version="1.0" encoding="utf-8"?>
<!-- Generator: Adobe Illustrator 16.0.3, SVG Export Plug-In . SVG Version: 6.00 Build 0)  -->
<!DOCTYPE svg PUBLIC "-//W3C//DTD SVG 1.1//EN" "http://www.w3.org/Graphics/SVG/1.1/DTD/svg11.dtd">
<svg version="1.1" id="Camada_1" xmlns="http://www.w3.org/2000/svg" xmlns:xlink="http://www.w3.org/1999/xlink" x="0px" y="0px"
	 width="300px" height="300px" viewBox="0 0 300 300" enable-background="new 0 0 300 300" xml:space="preserve">
<path d="M152.975,35.964C87.89,35.964,34.939,88.915,34.939,154c0,65.084,52.951,118.035,118.035,118.035
	c65.086,0,118.036-52.951,118.036-118.035C271.011,88.915,218.061,35.964,152.975,35.964z M152.975,249.394
	c-52.601,0-95.395-42.793-95.395-95.394c0-52.601,42.794-95.395,95.395-95.395S248.37,101.399,248.37,154
	C248.37,206.601,205.575,249.394,152.975,249.394z M164.295,142.679h51.509v22.64h-51.509v51.51h-22.64v-51.51H90.146v-22.64h51.508
	V91.171h22.64V142.679z"/>
</svg>
