<?xml version="1.0" encoding="utf-8"?>
<!-- Generator: Adobe Illustrator 16.0.3, SVG Export Plug-In . SVG Version: 6.00 Build 0)  -->
<!DOCTYPE svg PUBLIC "-//W3C//DTD SVG 1.1//EN" "http://www.w3.org/Graphics/SVG/1.1/DTD/svg11.dtd">
<svg version="1.1" id="Camada_1" xmlns="http://www.w3.org/2000/svg" xmlns:xlink="http://www.w3.org/1999/xlink" x="0px" y="0px"
	 width="300px" height="300px" viewBox="0 0 300 300" enable-background="new 0 0 300 300" xml:space="preserve">
<g>
	<g>
		<defs>
			<rect id="SVGID_1_" x="30.92" y="30.935" width="238.08" height="238.129"/>
		</defs>
		<clipPath id="SVGID_2_">
			<use xlink:href="#SVGID_1_"  overflow="visible"/>
		</clipPath>
		<path clip-path="url(#SVGID_2_)" fill="#010101" d="M250.436,138.775l-44.681,44.663c-24.662,24.677-64.667,24.677-89.329,0
			c-3.887-3.87-6.924-8.234-9.594-12.738l20.761-20.761c0.985-0.995,2.205-1.563,3.369-2.236c1.434,4.906,3.94,9.548,7.796,13.403
			c12.317,12.322,32.359,12.308,44.667,0l44.663-44.666c12.324-12.322,12.324-32.357,0-44.671
			c-12.307-12.316-32.342-12.316-44.663,0l-15.886,15.9c-12.886-5.02-26.776-6.369-40.292-4.388l33.843-33.844
			c24.677-24.669,64.671-24.669,89.347,0C275.096,74.107,275.096,114.105,250.436,138.775L250.436,138.775z M132.318,212.22
			l-15.892,15.899c-12.314,12.308-32.357,12.308-44.672,0c-12.316-12.321-12.316-32.356,0-44.681l44.672-44.663
			c12.323-12.324,32.349-12.324,44.666,0c3.846,3.848,6.352,8.489,7.803,13.387c1.174-0.678,2.376-1.234,3.361-2.22l20.761-20.753
			c-2.653-4.519-5.706-8.868-9.593-12.746c-24.662-24.669-64.668-24.669-89.337,0l-44.664,44.664
			c-24.669,24.677-24.669,64.668,0,89.345c24.667,24.662,64.667,24.662,89.337,0l33.854-33.854
			C159.087,218.589,145.196,217.231,132.318,212.22L132.318,212.22z M132.318,212.22"/>
	</g>
</g>
</svg>
